<svg width="4" height="18" viewBox="0 0 4 18" fill="none" xmlns="http://www.w3.org/2000/svg">
<path d="M1.875 17.4462C1.35938 17.4462 0.918021 17.2699 0.550938 16.9173C0.183646 16.5649 0 16.1412 0 15.6462C0 15.1512 0.183646 14.7274 0.550938 14.3748C0.918021 14.0224 1.35938 13.8462 1.875 13.8462C2.39062 13.8462 2.83198 14.0224 3.19906 14.3748C3.56635 14.7274 3.75 15.1512 3.75 15.6462C3.75 16.1412 3.56635 16.5649 3.19906 16.9173C2.83198 17.2699 2.39062 17.4462 1.875 17.4462ZM1.875 10.5231C1.35938 10.5231 0.918021 10.3468 0.550938 9.9942C0.183646 9.6418 0 9.2181 0 8.7231C0 8.2281 0.183646 7.8044 0.550938 7.452C0.918021 7.0994 1.35938 6.9231 1.875 6.9231C2.39062 6.9231 2.83198 7.0994 3.19906 7.452C3.56635 7.8044 3.75 8.2281 3.75 8.7231C3.75 9.2181 3.56635 9.6418 3.19906 9.9942C2.83198 10.3468 2.39062 10.5231 1.875 10.5231ZM1.875 3.6C1.35938 3.6 0.918021 3.4238 0.550938 3.0714C0.183646 2.7188 0 2.295 0 1.8C0 1.305 0.183646 0.8813 0.550938 0.5289C0.918021 0.1763 1.35938 0 1.875 0C2.39062 0 2.83198 0.1763 3.19906 0.5289C3.56635 0.8813 3.75 1.305 3.75 1.8C3.75 2.295 3.56635 2.7188 3.19906 3.0714C2.83198 3.4238 2.39062 3.6 1.875 3.6Z" fill="#545252"/>
</svg>
